# xmcd
#
# Track frame offsets: 
#        150
#        15338
#        30610
#        45266
#        61059
#        75754
#        105433
#        119961
#        134937
#
# Disc length: 1990 seconds
#
# Revision: 1
# Processed by: cddbd v1.5.2PL0 Copyright (c) Steve Scherf et al.
# Submitted via: ExactAudioCopyFreeDBPlugin 1.0
#
DISCID=6807c409
DTITLE=K.I.D. - Fine Time Tonight
DYEAR=1982
DGENRE=Funk
TTITLE0=Fine Time Tonight
TTITLE1=I Wanna Piece Of The Action
TTITLE2=The Shoop Song
TTITLE3=Midnight Magic
TTITLE4=Watch Out
TTITLE5=Come And Get It
TTITLE6=My Love Is On The Way
TTITLE7=Lies
TTITLE8=Can't Get Enough Of This
EXTD=
EXTT0=
EXTT1=
EXTT2=
EXTT3=
EXTT4=
EXTT5=
EXTT6=
EXTT7=
EXTT8=
PLAYORDER=
